Coordinates
version=1
nRows=10
nColumns=28
inDegrees=yes

Units are S.I. units (second, meters, Newtons, ...)
If the header above contains a line with 'inDegrees', this indicates whether rotational values are in degrees (yes) or radians (no).

endheader
time	pelvis_tilt	pelvis_list	pelvis_rotation	pelvis_tx	pelvis_ty	pelvis_tz	hip_flexion_r	hip_adduction_r	hip_rotation_r	knee_angle_r	knee_angle_r_ie	knee_angle_r_vv	ankle_angle_r	subtalar_angle_r	mtp_angle_r	hip_flexion_l	hip_adduction_l	hip_rotation_l	knee_angle_l	knee_angle_l_ie	knee_angle_l_vv	ankle_angle_l	subtalar_angle_l	mtp_angle_l	lumbar_extension	lumbar_bending	lumbar_rotation
      7.65000000	      1.87277551	      6.88115806	     35.50468014	      0.27626352	      0.90662913	     -0.56058518	     14.92568206	      1.72164919	    -21.54690905	    -26.99132993	      9.52890500	    -19.31131879	     11.35328258	     19.08588005	      0.00000000	     18.76174823	     -2.63761873	    -18.78970355	    -55.91858643	     10.03088587	      5.92350486	      6.99838524	     35.18001325	      0.00000000	    -28.92423854	     -1.61892190	    -13.98841196
      7.65500000	      2.18819228	      7.06276482	     35.14461230	      0.27670730	      0.90589879	     -0.56380967	     14.81196161	      1.67952796	    -21.83361823	    -27.72202289	      9.60900071	    -19.77809615	     11.92188277	     19.38706840	      0.00000000	     18.70922937	     -2.86101831	    -18.99584755	    -56.81821069	      9.86928182	      6.07853382	      6.81861486	     35.80571422	      0.00000000	    -28.99074388	     -1.54113299	    -13.58183087
      7.66000000	      2.48109000	      7.25063498	     34.78244770	      0.27707759	      0.90527690	     -0.56698061	     14.70142680	      1.61869441	    -21.94561430	    -28.37045172	      9.47727582	    -20.14276429	     12.40906687	     19.61084846	      0.00000000	     18.63207200	     -3.04376651	    -19.16342517	    -57.63457273	      9.72312190	      6.21617663	      6.68185071	     36.30339935	      0.00000000	    -29.05079952	     -1.50703837	    -13.10942910
      7.66500000	      2.75763996	      7.43428856	     34.42365314	      0.27740568	      0.90476450	     -0.57012969	     14.58670203	      1.54519832	    -21.94809262	    -28.95812670	      9.25587197	    -20.44128274	     12.85892391	     19.88439650	      0.00000000	     18.52894361	     -3.20329534	    -19.28492349	    -58.36127709	      9.63187537	      6.32940504	      6.54910210	     36.80825679	      0.00000000	    -29.09241281	     -1.47590750	    -12.70616413
      7.67000000	      3.00020520	      7.60457294	     34.09467344	      0.27765866	      0.90435618	     -0.57323349	     14.46908337	      1.46084065	    -21.83405424	    -29.48344490	      9.04759574	    -20.67514143	     13.25924498	     19.97593678	      0.00000000	     18.42952718	     -3.34137937	    -19.28820496	    -59.03058295	      9.55728527	      6.34323290	      6.42093064	     37.05733589	      0.00000000	    -29.09838963	     -1.44443813	    -12.41223702
      7.67500000	      3.24197381	      7.82259318	     33.75556928	      0.27788509	      0.90409255	     -0.57633911	     14.35058493	      1.32601823	    -21.77921075	    -30.00854149	      8.78399698	    -20.95676396	     13.58431525	     20.33416016	      0.00000000	     18.25368181	     -3.38329771	    -19.37077126	    -59.53656045	      9.59931575	      6.49981395	      6.35870969	     37.50371363	      0.00000000	    -29.13157841	     -1.47869725	    -12.04953246
      7.68000000	      3.43326816	      7.99192489	     33.44794103	      0.27804118	      0.90386069	     -0.57934550	     14.25239021	      1.21884602	    -21.62836404	    -30.47602857	      8.65830924	    -21.22057666	     13.85774001	     20.39095245	      0.00000000	     18.13370286	     -3.44730094	    -19.30408666	    -60.02753666	      9.67595917	      6.50038103	      6.31273718	     37.58204249	      0.00000000	    -29.09866250	     -1.48336931	    -11.81972928
      7.68500000	      3.61051958	      8.17313735	     33.16490417	      0.27813454	      0.90374870	     -0.58235568	     14.14956181	      1.08240449	    -21.51697733	    -30.92595209	      8.58211925	    -21.50531430	     14.07467588	     20.49402452	      0.00000000	     17.98693850	     -3.44622812	    -19.24183648	    -60.40988622	      9.81152538	      6.57439204	      6.32981459	     37.57078460	      0.00000000	    -29.06075385	     -1.52088783	    -11.57308641
      7.69000000	      3.76194285	      8.34154808	     32.90288668	      0.27818787	      0.90372396	     -0.58531040	     14.04424759	      0.96236703	    -21.40192273	    -31.31861028	      8.58036644	    -21.83541566	     14.22369360	     20.53895974	      0.00000000	     17.84056534	     -3.41460159	    -19.15001040	    -60.69298243	     10.02295098	      6.66225974	      6.39410778	     37.39880867	      0.00000000	    -28.99005578	     -1.56005563	    -11.41513952
      7.69500000	      3.90628324	      8.52334416	     32.69404087	      0.27811710	      0.90382381	     -0.58826402	     13.92423633	      0.79864342	    -21.39217117	    -31.70931956	      8.67395917	    -22.16987753	     14.36862546	     20.57233362	      0.00000000	     17.67854621	     -3.32775095	    -19.02359052	    -60.92678437	     10.18353516	      6.77904178	      6.53321039	     36.90505074	      0.00000000	    -28.93645733	     -1.60099099	    -11.26507816
